<?xml version="1.0" encoding="utf-8" standalone="no"?>
<!DOCTYPE svg PUBLIC "-//W3C//DTD SVG 1.1//EN"
  "http://www.w3.org/Graphics/SVG/1.1/DTD/svg11.dtd">
<!-- Created with matplotlib (https://matplotlib.org/) -->
<svg height="360pt" version="1.1" viewBox="0 0 360 360" width="360pt" xmlns="http://www.w3.org/2000/svg" xmlns:xlink="http://www.w3.org/1999/xlink">
 <defs>
  <style type="text/css">
*{stroke-linecap:butt;stroke-linejoin:round;}
  </style>
 </defs>
 <g id="figure_1">
  <g id="patch_1">
   <path d="M 0 360 
L 360 360 
L 360 0 
L 0 0 
z
" style="fill:#ffffff;"/>
  </g>
  <g id="axes_1">
   <g id="patch_2">
    <path d="M 0 360 
L 360 360 
L 360 0 
L 0 0 
z
" style="fill:#ffffff;"/>
   </g>
   <g id="matplotlib.axis_1"/>
   <g id="matplotlib.axis_2"/>
   <g id="line2d_1">
    <path clip-path="url(#pcd9fbdb51d)" d="M -0 252 
L 0.11664 247.464 
L 0.46656 242.928 
L 1.04976 238.392 
L 1.86624 233.856 
L 2.916 229.32 
L 4.19904 224.784 
L 5.71536 220.248 
L 7.46496 215.712 
L 9.44784 211.176 
L 11.664 206.64 
L 14.25636 201.852 
L 17.10864 197.064 
L 20.22084 192.276 
L 23.59296 187.488 
L 27.42336 182.448 
L 31.54176 177.408 
L 35.94816 172.368 
L 40.64256 167.328 
L 45.88164 162.036 
L 51.43824 156.744 
L 57.31236 151.452 
L 63.80676 145.908 
L 70.64964 140.364 
L 77.841 134.82 
L 85.73184 129.024 
L 94.00356 123.228 
L 102.65616 117.432 
L 112.09104 111.384 
L 121.94064 105.336 
L 132.20496 99.288 
L 143.33796 92.988 
L 154.92096 86.688 
L 167.44464 80.136 
L 180.45504 73.584 
L 193.95216 67.032 
L 208.48356 60.228 
L 223.53984 53.424 
L 239.70816 46.368 
L 256.44096 39.312 
L 273.73824 32.256 
L 292.24836 24.948 
L 311.364 17.64 
L 331.776 10.08 
L 352.836 2.52 
L 360 0 
L 360 0 
" style="fill:none;stroke:#000000;stroke-linecap:square;stroke-width:20;"/>
   </g>
   <g id="patch_3">
    <path d="M 0 360 
L 0 0 
" style="fill:none;stroke:#000000;stroke-linecap:square;stroke-linejoin:miter;stroke-width:20;"/>
   </g>
   <g id="patch_4">
    <path d="M 360 360 
L 360 0 
" style="fill:none;stroke:#000000;stroke-linecap:square;stroke-linejoin:miter;stroke-width:20;"/>
   </g>
   <g id="patch_5">
    <path d="M 0 360 
L 360 360 
" style="fill:none;stroke:#000000;stroke-linecap:square;stroke-linejoin:miter;stroke-width:20;"/>
   </g>
   <g id="patch_6">
    <path d="M 0 0 
L 360 0 
" style="fill:none;stroke:#000000;stroke-linecap:square;stroke-linejoin:miter;stroke-width:20;"/>
   </g>
  </g>
 </g>
 <defs>
  <clipPath id="pcd9fbdb51d">
   <rect height="360" width="360" x="0" y="0"/>
  </clipPath>
 </defs>
</svg>
